<?xml version="1.0" encoding="utf-8"?>
<!-- Generator: Adobe Illustrator 27.3.1, SVG Export Plug-In . SVG Version: 6.00 Build 0)  -->
<svg version="1.1" id="Calque_1" xmlns="http://www.w3.org/2000/svg" xmlns:xlink="http://www.w3.org/1999/xlink" x="0px" y="0px"
	 viewBox="0 0 1133.86 1133.86" style="enable-background:new 0 0 1133.86 1133.86;" xml:space="preserve">
<style type="text/css">
	.st0{fill:#181818;}
	.st1{fill:#4EBAAE;}
</style>
<g>
	<path class="st0" d="M605.68,981.21C605.68,981.21,605.68,981.21,605.68,981.21c-0.02,0-0.05,0-0.07,0L605.68,981.21z"/>
</g>
<path class="st1" d="M1030.28,1109.2l-11.23,4.69l-25.27-4.69c0,0-7.58,1.55-19.66,5.79c-12.07,4.24-71.88-4.24-71.88-4.24
	s-5.62,2.86-10.39,0.13s-103.05-5.55-120.46-0.01s-94.63-1.64-94.63-1.64s-18.53,3.96-14.43-0.44c0,0-73.17-2.08-79.91-8.15
	c0,0-89.29-7.17-103.33,3.86c-14.04,11.03-34.26,11.67-34.26,11.67l-16.85-6.7c0,0,32.01-1.1-16.29-1.1s-107.26-15.99-107.26-15.99
	s-25.27,8.82-34.26,1.1c-8.99-7.72-12.92-1.65-12.92-1.65s-11.79,9.38-18.53-0.55c0,0-120.74,14.89-138.15,6.07
	c0,0-4.49,4.41-12.35,1.1c0,0-65.56,9.79-74.55,1.52c0,0-2.95-159.79,5.48-159.24s-11.98,1.1-3.74-6.62c0,0-7.75-26.47-2-24.27
	c0,0-7.7-58.04-2.22-74.56C16.96,817.9,2.57,692,10.87,693.11c0,0-4.62-14.89-0.69-18.2c0,0-6.74-79.41,0-86.58
	c0,0-5.05-7.17,0-9.38s14.04-375.56,1.68-446.7S9.62,51.73,9.62,51.73V28.57h105.58c0,0,20.22-11.03,47.17,0s74.13,9.93,94.34,4.41
	c20.22-5.51,10.11-6.07,28.64-3.86c0,0,20.78-11.03,31.45-1.65s147.13,9.93,180.83,3.31s6.74-6.62,23.59,1.65
	c16.85,8.27,122.99-13.24,173.53,0c0,0,117.93-9.8,140.39-8.76c0,0,5.62,6.01,19.09,2.7s113.44-16.03,122.99-2.77
	c0,0,4.49-8.26,12.35-1.09c7.86,7.17,88.45-0.83,105.3,0.83c0,0-1.68,31.43,6.74,32.26c8.42,0.83,5.05,31.43,0.84,29.78
	c0,0,5.62,6.34,0.28,11.86c0,0,5.62,95.68,3.37,111.12c0,0,3.65,33.92,1.12,40.26c0,0,16.47,225.56,8.7,322.34
	c0,0,1.97,6.89,0.56,11.31c0,0,2.53,3.86,0.28,6.34c0,0-9.27,112.64-5.48,133.74c0,0,11.37,19.85,0,33.5c0,0,4.21,5.38,0.84,10.34
	c0,0,5.9,91.41,0.84,97.61c0,0,17.69,123.26,2.11,159.24c0,0,8.07,34.88,6.42,51.43c0,0,2.65,1.1,0.22,7.17
	c0,0,3.64,34.08,1.03,34.55C1122.75,1116.18,1032.53,1113.06,1030.28,1109.2z"/>
<path class="st0" d="M377.27,227.89c-13.96,1.92-27.76,5.05-41.6,7.79c-0.73,0.14-1.29,1.12-2.77,2.48
	c9.86,1.35,18.66,2.56,27.47,3.77c0.15,0.83,0.31,1.67,0.46,2.5c-10.75,4.23-21.5,8.45-32.25,12.68c0.14,0.62,0.29,1.23,0.43,1.85
	c2.77,0.57,5.67,0.8,8.27,1.81c2.39,0.94,6.48,3.14,6.29,4.05c-0.62,2.94-2.34,6.14-4.61,8.11c-2.21,1.91-5.66,2.34-8.5,3.55
	c-2.36,1-4.65,2.19-6.97,3.3c0.1,0.58,0.2,1.17,0.29,1.75c4.68,0,9.36,0,14.65,0c-0.7,2.69-1.24,4.68-1.73,6.68
	c-5.29,21.82-12.64,43.4-15.32,65.54c-3.09,25.52-2.26,51.54-2.68,77.36c-0.12,7.21,1.27,15,7.44,19.52
	c6.67,4.89,8.82,11.91,11.87,18.7c1.51,3.36,3.01,6.73,4.7,10.01c14.42,27.97,34.93,50.72,60.1,69.34
	c4.86,3.59,6.35,6.69,4.68,13.26c-6.14,24.17-12.41,48.44-16.12,73.05c-3.35,22.19-3.93,44.85-4.8,67.34
	c-1.12,28.75-0.6,57.51,6.71,85.6c3.26,12.53,7.38,24.84,11.51,37.12c0.41,1.23,3.56,2.06,5.48,2.13c2.67,0.1,5.37-0.69,8.67-1.19
	c-3.26,13.08-6.24,25.03-9.22,36.97c0.79,0.32,1.58,0.64,2.37,0.96c3.17-4.49,5.96-9.32,9.61-13.37c3.63-4.03,8.13-7.27,12.25-10.85
	c0.46,0.36,0.91,0.72,1.37,1.08c-1.47,26.23-2.95,52.45-4.46,79.32c-2.49-0.97-4.77-1.92-7.08-2.76
	c-5.82-2.12-11.53-4.73-17.52-6.18c-17.63-4.26-28.02,0.64-33.29,17.24c-3.06,9.63-4.12,20.07-4.76,30.22
	c-0.24,3.77-0.48,6.27-1.42,7.97c-0.22,0.4,52.1-0.28,113.19-1.41c1.16-0.28,4.05-1.18,5.89-3.83c1.7-2.46,1.56-5.12,1.45-5.56
	c-4.2-16.72-13.43-29.06-30.52-34.52c-1.42-0.45-3.36-2.51-3.33-3.77c0.45-18.82,1.18-37.64,1.89-56.46
	c0.04-0.92,0.52-1.83,1.38-4.71c10.77,11.75,20.78,22.65,31.5,34.34c4.6-13.31,1.01-26.08,3.27-38.99
	c10.25,3.87,18.31,10.09,25.77,17.09c3.66,3.43,6.64,7.59,10.1,11.26c1.38,1.46,3.22,2.48,4.85,3.7c1.02-1.96,2.63-3.82,2.94-5.88
	c1.02-6.7,1.57-13.47,2.3-20.22c0.35-3.19,0.69-6.38,1.14-10.62c9.77,3.96,18.49,7.49,27.5,11.14c1.23-2.26,2.19-4.04,3.79-6.97
	c1.49,2.9,2.86,4.87,3.56,7.06c5.67,17.66,8.56,35.8,9.37,54.32c0.21,4.85-1.2,7.9-5.77,10.11c-3.95,1.9-7.12,5.12-10.85,7.43
	c-3.94,2.44-10.14,6.3-14.43,22.25c-1.42,7.29,3.53,10.4,7.02,11.21c59.17-1.35,109.07-2.87,109.13-3.96
	c0.58-11.77-2.85-22.63-8.93-32.65c-7.81-12.88-18.27-17.51-33.12-14.18c-8.24,1.85-16.3,4.46-23.34,6.42
	c-1.53-14.51-2.02-29.5-4.93-44c-2.89-14.42-8.2-28.36-12.67-43.22c2.24,2.7,4.04,4.89,5.85,7.07c0.59-0.37,1.18-0.74,1.78-1.1
	c-2.16-4.84-4.32-9.68-6.47-14.53c-0.69-1.56-2.09-3.24-1.89-4.69c1.74-12.55,3.77-25.06,5.79-38.08c1.65,0.62,3.62,1.29,5.54,2.09
	c21.3,8.88,42.54,17.92,63.94,26.58c5.13,2.08,10.87,4.37,16.15,4.01c17.19-1.15,34.36-3.11,51.42-5.51
	c9.65-1.36,11.33-4.23,11.89-14.05c1.19-20.94,2.44-41.87,3.72-62.8c0.1-1.6,0.63-3.18,1.26-6.24c5.31,8.06,5.47,15.35,4.45,22.95
	c-0.2,1.51,0.76,3.17,1.18,4.77c1.16-1.2,3.16-2.29,3.34-3.62c0.58-4.35,0.64-8.78,0.59-13.18c-0.02-2.05-0.77-4.08-1.19-6.12
	c1.89,0.61,2.6,1.48,2.95,2.47c2.74,7.86,5.22,15.82,8.24,23.57c0.76,1.95,3.21,3.24,4.88,4.83c0.78-2.15,2.54-4.48,2.16-6.4
	c-1.14-5.85-2.92-11.61-4.81-17.28c-1.83-5.49-4.11-10.83-6.19-16.24c0.67-0.28,1.33-0.57,2-0.85c5,11.05,10.01,22.1,15.01,33.15
	c1.37-2.04,1.84-3.92,1.29-5.44c-2.41-6.73-5.24-13.31-7.61-20.06c-0.73-2.07-1.09-4.67-0.52-6.73c1.83-6.66,0.87-12.74-3.16-18.16
	c-1.45-1.95-3.96-3.12-5.63-4.38c11.73-1.1,23.34-2.18,34.6-3.24c-0.62,0.83-1.82,2.44-3.02,4.06c0.15,0.24,0.3,0.47,0.45,0.71
	c1.75-0.99,3.58-1.87,5.25-3c4.18-2.82,8.17-5.94,12.45-8.6c11.85-7.35,20.7-17.36,27.58-29.41c25.8-45.16,3.68-100.82-37.31-113.96
	c-2.94-0.94-5.24-3.78-7.92-5.62c-4.21-2.89-8.12-6.83-12.8-8.31c-11.75-3.71-23.85-6.29-36.58-9.52c0-6.5,0.04-13.28-0.01-20.05
	c-0.05-8.02-2.66-11.27-10.63-11.36c-7.32-0.09-14.64,1.19-21.97,1.44c-8.02,0.27-16.05,0.06-24.24,0.06
	c0.28-2.71,0.54-5.21,0.88-8.49c-3.11,2.94-5.4,5.11-7.7,7.27c-0.41-0.47-0.82-0.94-1.23-1.41c1.53-2.45,2.99-4.95,4.59-7.36
	c21.69-32.77,33.81-68.37,28.49-107.95C706,330,691.88,289.27,669.79,251.43c-1.47-2.52-2.72-5.17-4.44-8.45
	c4.8,0.72,9.09,3.67,12.36-2.31c-9.46-2.26-18.17-4.34-27.42-6.55c4.75-2.98,8.6-5.39,12.76-8c-3.75-1.1-6.61-1.32-8.69-2.71
	c-2.52-1.69-4.51-4.26-6.52-6.62c-17.9-21-38.18-39.48-61.97-53.36c-22.58-13.17-46.15-24.64-69.34-36.77
	c-1.19-0.62-2.8-0.44-4.87-0.73c7.49,7.75,14.16,14.65,20.84,21.55c-0.44,0.49-0.89,0.98-1.33,1.47c-1.03-0.37-2.06-0.7-3.08-1.1
	c-18.19-7.18-36.34-14.49-54.61-21.47c-3.86-1.48-8.17-1.81-12.27-2.67c-0.28,0.75-0.57,1.49-0.85,2.24
	c8.43,5.99,16.86,11.97,26.5,18.82c-25.66-1.03-49.19,1.19-72.51,5.53c-0.08,0.82-0.17,1.64-0.25,2.45
	c3.69,1.77,7.38,3.54,11.82,5.67c-8.46,2.04-16.92-0.91-24.99,6.26c14.99,2.72,28.38,5.15,41.77,7.58c-3.12,1.29-6.2,1.65-9.19,2.35
	c-21.46,5.08-42.92,10.18-64.34,15.43c-2.14,0.53-4.02,2.14-6.61,3.57c11.88,2.19,22.57,4.17,33.27,6.14
	c-17.64,4.84-34.07,11.36-49.79,19.67c0.18,0.65,0.35,1.31,0.53,1.96c8.45-1.28,16.9-2.56,25.71-3.9c-0.45,1.6-9.92,6.76-10.11,7.45
	c21-3.31,50.88-10.5,72.79-13.96 M583.76,402.51c-10.34-0.07-16.21-7.47-13.5-17.55c2.73-10.14,9.53-16.87,19.38-20.03
	c10.54-3.37,19.52,4.48,18.48,15.66C607.08,391.79,595.07,402.59,583.76,402.51z M670.9,461.88c-19.68,17.9-42.71,26.55-69.66,21.21
	c-3.79-0.75-7.38-2.53-11.07-3.84c0.12-0.67,0.24-1.34,0.36-2.01c2.36,0,4.73,0.13,7.08-0.02c11.76-0.74,27.86-7.04,39.24-9.55
	c24.86-9.44,38.6-31.57,46.99-61.14c2.14-15.09,4.28-24.95-0.51-39.41c-3.91-11.81-6.1-24.65-16.17-32.6
	c-4.99-3.94-10.16-6.91-15.15-10.85c-15.1-11.92-32.17-8.66-50.43-2.97c-15.54,4.84-25.81,6.77-35.97,20.65
	c-11.85,16.2-19.98,30.48-22.9,49.89c-0.33,2.18-0.9,4.33-1.36,6.5c-0.65-0.07-1.29-0.14-1.94-0.21c-0.24-2.03-0.77-4.08-0.68-6.09
	c1.61-33.99,13.77-62.5,43.8-80.89c25.78-15.78,60.1-12.2,84.25,8.07c21.86,18.35,32.26,42.13,33.11,70.45
	C700.75,417.6,692.2,442.5,670.9,461.88z M645.81,366.38c0.27-4.42,2.45-7.31,7.17-7.35c4.42-0.42,8.55,4.34,7.84,9.82
	c-0.52,3.65-2.85,6.13-7.11,6.33C649.25,375.4,645.52,371.22,645.81,366.38z M839.28,613.48c3.32,26.01-5.84,33.13-20.21,52.29
	c-19.46,25.95-60.88,26.18-80.16,2.65c-26.73-32.62-29.26-69.44-9.53-97.88c12.16-17.51,26.04-20.6,47.38-19.97
	C811.49,551.59,833.54,568.53,839.28,613.48z"/>
</svg>
