<?xml version="1.0" encoding="utf-8"?>
<!-- Generator: Adobe Illustrator 27.3.1, SVG Export Plug-In . SVG Version: 6.00 Build 0)  -->
<svg version="1.1" id="Calque_1" xmlns="http://www.w3.org/2000/svg" xmlns:xlink="http://www.w3.org/1999/xlink" x="0px" y="0px"
	 viewBox="0 0 566.93 566.93" style="enable-background:new 0 0 566.93 566.93;" xml:space="preserve">
<style type="text/css">
	.st0{fill:#020203;}
</style>
<path class="st0" d="M436.68,370.07c0.77-1.04,1.55-2.07,1.95-2.61c-7.24,0.68-14.71,1.38-22.26,2.08c1.07,0.81,2.69,1.56,3.62,2.82
	c2.59,3.49,3.21,7.4,2.03,11.69c-0.37,1.32-0.14,3,0.34,4.33c1.53,4.34,3.34,8.57,4.89,12.91c0.35,0.98,0.05,2.19-0.83,3.5
	c-3.22-7.11-6.44-14.22-9.66-21.33c-0.43,0.18-0.86,0.37-1.29,0.55c1.34,3.48,2.8,6.91,3.98,10.45c1.22,3.65,2.36,7.35,3.09,11.11
	c0.24,1.23-0.89,2.74-1.39,4.12c-1.07-1.02-2.65-1.86-3.14-3.11c-1.95-4.98-3.54-10.11-5.3-15.17c-0.23-0.64-0.68-1.2-1.89-1.59
	c0.27,1.32,0.75,2.62,0.77,3.94c0.04,2.83-0.01,5.68-0.38,8.48c-0.11,0.86-1.4,1.56-2.15,2.33c-0.27-1.02-0.89-2.1-0.76-3.07
	c0.65-4.89,0.56-9.58-2.86-14.77c-0.41,1.97-0.75,2.98-0.81,4.01c-0.83,13.47-1.63,26.93-2.4,40.41c-0.36,6.32-1.44,8.17-7.65,9.04
	c-10.98,1.55-22.03,2.8-33.09,3.55c-3.4,0.23-7.09-1.25-10.39-2.59c-13.77-5.57-27.44-11.39-41.14-17.1
	c-1.23-0.51-2.5-0.95-3.56-1.35c-1.3,8.37-2.61,16.42-3.73,24.5c-0.13,0.93,0.77,2.01,1.22,3.01c1.38,3.12,2.77,6.23,4.16,9.35
	c-0.38,0.23-0.76,0.47-1.14,0.71c-1.16-1.41-2.32-2.81-3.76-4.55c2.87,9.57,6.29,18.53,8.15,27.81c1.87,9.33,2.19,18.98,3.17,28.31
	c4.52-1.26,9.72-2.94,15.01-4.13c9.55-2.14,16.28,0.83,21.31,9.12c3.91,6.45,6.12,13.44,5.74,21c-0.2,4.13,1.62,6.03,5.47,6.33
	c8.59,0.65,17.19,1.33,25.78,1.81c19.82,1.12,39.66,2.02,59.48,3.25c5.01,0.31,9.97,1.53,14.95,2.33c0.07,0.53,0.14,1.04,0.21,1.57
	c-1.56,0.56-3.09,1.44-4.7,1.62c-11.66,1.33-23.31,2.92-35.01,3.66c-22.08,1.39-44.18,2.68-66.29,3.24
	c-33.62,0.86-67.26,1.43-100.89,1.44c-27,0.01-54.02-0.62-81-1.69c-23.84-0.95-47.65-2.83-71.47-4.47
	c-5.22-0.36-10.39-1.41-15.56-2.24c-1.37-0.23-2.68-0.85-4.01-1.29c-0.01-0.37-0.01-0.74-0.02-1.1c1.7-0.52,3.36-1.33,5.09-1.51
	c13.4-1.38,26.81-2.69,40.23-3.9c9.45-0.85,18.91-1.41,28.36-2.28c5.78-0.54,6.15-1.82,6.49-7.39c0.41-6.54,1.1-13.26,3.07-19.45
	c3.39-10.68,10.07-13.83,21.42-11.09c3.86,0.93,7.52,2.61,11.27,3.98c1.49,0.54,2.95,1.15,4.55,1.77
	c0.97-17.28,1.92-34.16,2.87-51.03c-0.29-0.23-0.59-0.47-0.89-0.69c-2.65,2.31-5.55,4.4-7.88,6.98c-2.35,2.61-4.15,5.71-6.18,8.6
	c-0.51-0.2-1.01-0.41-1.53-0.62c1.92-7.69,3.83-15.38,5.94-23.79c-2.13,0.32-3.86,0.83-5.58,0.77c-1.23-0.05-3.26-0.58-3.52-1.37
	c-2.65-7.9-5.31-15.83-7.4-23.88c-4.71-18.07-5.03-36.58-4.32-55.08c0.56-14.47,0.93-29.05,3.09-43.33
	c2.39-15.83,6.43-31.45,10.37-47.01c1.07-4.23,0.11-6.22-3.01-8.54c-16.19-11.98-29.39-26.62-38.67-44.62
	c-1.09-2.1-2.05-4.28-3.02-6.44c-1.97-4.37-3.34-8.89-7.64-12.03c-3.97-2.91-4.86-7.92-4.79-12.56c0.27-16.61-0.26-33.35,1.72-49.77
	c1.72-14.25,6.45-28.13,9.85-42.17c0.32-1.29,0.66-2.57,1.11-4.3c-3.4,0-6.42,0-9.42,0c-0.06-0.38-0.13-0.75-0.19-1.13
	c1.5-0.71,2.96-1.48,4.49-2.12c1.83-0.78,4.05-1.06,5.47-2.28c1.47-1.26,2.57-3.32,2.97-5.22c0.12-0.58-2.51-2-4.05-2.6
	c-1.67-0.65-3.54-0.8-5.32-1.16c-0.09-0.4-0.19-0.79-0.28-1.19c6.91-2.72,13.83-5.44,20.75-8.15c-0.1-0.53-0.2-1.07-0.29-1.61
	c-5.67-0.77-11.33-1.56-17.68-2.43c0.95-0.88,1.32-1.5,1.78-1.6c8.91-1.77,17.79-3.78,26.77-5.01c2.92-0.4,6.12,1.29,9.21,1.98
	c1.31,0.29,2.81,0.2,3.91,0.83c1.61,0.92,3.83,2.13,4.14,3.58c0.32,1.5-1.33,3.41-2.14,5.13c-0.1,0.2-0.38,0.32-0.57,0.48
	c-1.72,1.52-3.43,3.04-5.15,4.55c1.65,1.35,3.31,2.68,4.93,4.06c0.47,0.4,1.07,0.85,1.22,1.38c1.34,4.7,5.27,5.91,9.25,7.26
	c1.98,0.67,3.92,1.7,5.62,2.91c5.31,3.76,11.39,5.07,17.48,4.07c6.6-1.08,13.35-2.72,19.38-5.52c13.62-6.31,27.83-9.45,42.69-10.13
	c4.7-0.21,9.49-0.82,14.09-0.17c30.85,4.32,59.31,13.47,78.49,40.5c0.56,0.79,1.25,1.5,2.62,1.94c-0.92-2.93-1.77-5.89-2.79-8.78
	c-5.28-14.98-11.3-29.58-20.33-42.81c-2.24-3.28-5.37-4.24-8.68-5.28c-1.37-0.43-2.78-0.71-5.05-1.27c3.31-2.15,5.82-3.79,8.48-5.51
	c-14.72-18.36-32.24-32.81-52.58-43.79c-6.12-3.3-12.67-5.77-18.93-8.83c-2.28-1.11-4.26-2.83-6.91-3.88
	c1.87,3.19,3.74,6.38,6.15,10.49c-10.36-3.52-19.6-6.65-28.85-9.79c-0.14,0.26-0.29,0.51-0.43,0.77c2.58,2.24,5.15,4.48,7.73,6.72
	c-0.15,0.4-0.3,0.8-0.45,1.19c-16.22-4.52-32.43-3.74-49.74-0.87c7.87,4.61,15.8,7.29,22.13,14.73
	c-15.75,0.71-29.66,4.83-43.79,9.39c9.54,2.96,18.62,6.37,25.97,13.77c-14.1,2.22-27.46,4.33-40.97,6.46
	c0.13-0.44,0.35-1.24,0.64-2.27c-5.67,0.86-11.11,1.68-16.55,2.51c-0.11-0.42-0.23-0.84-0.34-1.26
	c10.12-5.34,20.69-9.54,32.04-12.66c-6.88-1.27-13.77-2.54-21.41-3.95c1.67-0.92,2.88-1.96,4.25-2.3
	c13.78-3.38,27.59-6.67,41.4-9.93c1.92-0.46,3.91-0.68,5.91-1.52c-8.61-1.56-17.23-3.13-26.88-4.88c5.19-4.61,10.64-2.71,16.08-4.03
	c-2.86-1.37-5.23-2.51-7.61-3.64c0.05-0.53,0.11-1.05,0.16-1.58c15-2.8,30.14-4.22,46.65-3.56c-6.2-4.4-11.63-8.26-17.05-12.11
	c0.18-0.48,0.36-0.96,0.55-1.44c2.64,0.56,5.41,0.77,7.89,1.72c11.75,4.49,23.43,9.2,35.13,13.82c0.65,0.26,1.32,0.47,1.98,0.71
	c0.29-0.32,0.57-0.63,0.86-0.95c-4.29-4.44-8.59-8.88-13.41-13.86c1.33,0.18,2.37,0.07,3.13,0.47
	c14.92,7.81,30.08,15.19,44.62,23.66c15.31,8.94,28.36,20.82,39.87,34.34c1.29,1.52,2.57,3.17,4.19,4.26
	c1.34,0.89,3.18,1.04,5.59,1.74c-2.68,1.68-5.16,3.23-8.21,5.15c5.95,1.42,11.55,2.76,17.64,4.22c-2.1,3.85-4.87,1.95-7.95,1.48
	c1.1,2.11,1.91,3.82,2.86,5.43c14.21,24.35,23.3,50.55,27.04,78.41c3.43,25.47-4.37,48.37-18.33,69.46
	c-1.03,1.55-1.97,3.16-2.95,4.73c0.26,0.3,0.53,0.6,0.79,0.91c1.47-1.4,2.95-2.79,4.95-4.68c-0.22,2.11-0.38,3.72-0.56,5.46
	c5.28,0,10.44,0.14,15.6-0.04c4.72-0.16,9.43-0.98,14.14-0.92c5.13,0.06,6.8,2.15,6.84,7.31c0.03,4.36,0.01,8.72,0.01,12.9
	c8.19,2.07,15.98,3.74,23.54,6.12c3.01,0.95,5.53,3.48,8.24,5.34c1.72,1.19,3.21,3.01,5.1,3.61c26.38,8.45,40.61,44.27,24.01,73.32
	c-4.43,7.76-10.12,14.2-17.75,18.93c-2.75,1.71-5.32,3.72-8.01,5.53c-1.07,0.72-2.25,1.29-3.37,1.93
	C436.87,370.38,436.78,370.22,436.68,370.07z M266.71,223.75c3.13-2.23,2.37-3.98,1.3-6.47c-2.98-6.97-6.51-13.99-7.78-21.33
	c-3.7-21.38,2.49-41,13.9-58.8c7.61-11.88,18.66-20.05,32.73-23.5c19.55-4.8,50.43,9.1,59.65,30.41c8.3,19.17,8.77,38.19,2.27,57.71
	c-0.45,1.36-0.89,2.73-1.66,5.13c2.77-1.71,4.58-2.82,6.82-4.19c-0.58,2.31-1.04,4.21-1.52,6.1c0.3,0.11,0.6,0.21,0.91,0.32
	c0.61-1.16,1.26-2.31,1.83-3.5c3.65-7.75,5.88-15.83,6.79-24.4c2.08-19.79-2.1-37.78-14.37-53.63
	c-24.14-31.2-77.92-45.9-114.88-26.43c-11.14,5.87-20.95,13.18-27.83,23.91c-1.65,2.59-2.76,5.52-4.11,8.3
	c0.32,0.17,0.64,0.33,0.95,0.5c2.61-3.61,5.07-7.36,7.88-10.81c2.5-3.09,5.25-6.02,8.18-8.7c0.85-0.77,2.7-0.47,4.09-0.65
	c-0.38,1.16-0.57,2.45-1.19,3.47c-2.96,4.89-6.47,9.5-8.99,14.6c-6,12.16-7.54,25.27-7.33,38.69c0.09,5.97-0.14,5.97,5.7,6.92
	c0.74,0.12,1.52,0.05,2.23,0.23c1.62,0.41,3.22,0.92,4.84,1.39c-0.08,0.45-0.16,0.9-0.23,1.35c-4.14,0-8.28,0-12.42,0
	c-0.02,0.47-0.04,0.93-0.05,1.4c4.49,0.49,8.97,0.98,13.46,1.47c-1.19,1.12-2.42,1.56-3.67,1.65c-2.49,0.17-4.99,0.26-7.48,0.17
	c-2.52-0.09-3.4,1.1-3.13,3.43c0.5,4.34,1.08,8.67,1.51,13.02c1.02,10.35,6.2,18.18,14.58,24.01c1.61,1.12,3.54,1.9,5.43,2.46
	c6.95,2.04,11.33-1.35,10.5-8.54c-0.47-4.03-2.07-7.93-3.16-11.88c-1.34-4.82-2.68-9.64-4.02-14.46c0.41-0.14,0.8-0.29,1.21-0.42
	C253.7,203.86,257.93,215.02,266.71,223.75z M424.89,271.17c-13.74-0.2-27.88,6.86-35.7,18.13c-12.7,18.3-12.75,41.99,4.45,62.98
	c12.41,15.14,40.19,18.64,56.41,5.5c12.9-10.46,19.12-24.52,19.4-40.62C469.94,290.58,452.84,272.06,424.89,271.17z M240.88,493.51
	c-6.9-7.52-13.34-14.54-20.27-22.09c-0.56,1.85-0.86,2.43-0.89,3.03c-0.46,12.11-0.93,24.21-1.22,36.33
	c-0.02,0.82,1.23,2.13,2.14,2.43c10.99,3.51,16.93,11.45,19.64,22.21c0.54,2.15,1.49,3.22,3.79,3.22
	c11.22-0.06,22.44-0.09,33.66-0.03c2.87,0.02,4.13-1.16,4.81-3.99c2.16-9.03,6.88-16.35,15.49-20.5c2.94-1.42,3.85-3.38,3.71-6.5
	c-0.53-11.92-2.39-23.59-6.03-34.95c-0.45-1.41-1.33-2.68-2.29-4.54c-1.03,1.89-1.65,3.04-2.43,4.49c-5.8-2.35-11.41-4.62-17.7-7.17
	c-0.29,2.73-0.51,4.78-0.74,6.83c-0.47,4.34-0.83,8.69-1.48,13.01c-0.2,1.33-1.24,2.52-1.89,3.79c-1.05-0.79-2.23-1.44-3.12-2.38
	c-2.22-2.36-4.14-5.04-6.5-7.24c-4.8-4.5-9.99-8.51-16.59-10.99C241.53,476.73,243.85,484.95,240.88,493.51z M193.71,282.53
	c-0.35-0.05-0.7-0.1-1.05-0.15c-0.61,1.48-1.41,2.91-1.8,4.45c-2.34,9.18-5.09,18.31-6.79,27.61c-5.13,28.14-6,56.62-5.11,85.13
	c0.26,8.2,1.78,16.37,2.84,24.53c0.2,1.55,0.92,3.04,1.39,4.55c0.71-3.07,0.8-5.93,0.69-8.78c-0.3-8.27-0.99-16.53-0.89-24.79
	c0.05-4.1,1.41-8.18,2.31-12.25c0.54-2.41,1.75-2.24,3.45-0.78c1.73,1.48,3.65,2.75,5.6,3.94c1.62,0.99,3.64,1.45,5.03,2.66
	c3.07,2.65,6.13,4.74,10.4,5.33c3.2,0.44,7.75-1.56,8.73,2.94c1.14-1.2,2.07-2.57,3.34-3.39c1.1-0.71,2.59-0.78,3.91-1.17
	c3.1-0.92,4.99-7.09,2.98-9.3c-1.19-1.32-2.16-2.89-3.06-4.43c-2.09-3.6-3.97-7.33-6.17-10.85c-0.57-0.92-2.07-1.21-3.07-1.92
	c-0.73-0.52-1.97-1.41-1.86-1.83c0.8-2.9-1.6-3.74-3.1-4.99c-3.41-2.83-7.53-5-7.58-10.36c-0.01-0.96-0.85-2.13-1.63-2.84
	c-5.82-5.23-5.77-12.75-7.43-19.5c-0.78-3.17-0.55-7.06,0.59-10.12c1.25-3.35,1.45-6.11-0.07-9.24c-3.33-6.85-5.34-13.84-1.89-21.34
	C193.89,284.75,193.65,283.57,193.71,282.53z M166.51,177.95c-0.15,0-0.29-0.01-0.44-0.01c0-7.61,0.37-15.26-0.11-22.84
	c-0.39-6.15-1.76-12.44-7.75-15.82c-10.1-5.7-21.55,0.32-22.19,11.84c-0.83,14.83-1.35,29.71-1.42,44.56
	c-0.07,12.95,12.78,20.76,24.67,15.35c1.47-0.67,2.91-2.14,3.6-3.61c1.16-2.44,2.16-5.13,2.4-7.79
	C165.91,192.43,166.13,185.18,166.51,177.95z M266.95,177.98c0.41,0.05,0.83,0.09,1.25,0.14c0.29-1.39,0.67-2.77,0.88-4.18
	c1.88-12.49,5.33-24.32,12.96-34.73c6.54-8.94,15.86-13.08,25.87-16.2c11.75-3.66,22.74-1.89,32.45,5.79
	c3.21,2.53,5.6,6.12,8.81,8.65c6.48,5.11,10.21,11.87,12.72,19.47c3.07,9.3,3.65,18.79,2.27,28.5
	c-2.89,20.38-17.74,37.91-37.08,42.16c-7.33,1.62-15.1,1.2-22.66,1.68c-1.51,0.1-3.04,0.02-4.55,0.02
	c-0.08,0.43-0.15,0.86-0.23,1.29c2.37,0.84,4.68,1.98,7.12,2.47c17.34,3.43,32.16-2.13,44.83-13.65
	c13.71-12.47,19.21-28.5,18.65-46.84c-0.55-18.22-7.24-33.52-21.3-45.33c-15.54-13.05-37.63-15.35-54.21-5.19
	c-19.33,11.83-27.14,30.18-28.18,52.05C266.45,175.35,266.79,176.67,266.95,177.98z M166.77,533.95c1.62,0.46,2.99,0.54,4.01,1.19
	c7.06,4.49,14.8,6.07,22.92,4.7c6.58-1.11,13.14-2.67,19.5-4.71c3.52-1.13,7.03-3.2,9.75-5.71c1.79-1.65,2.67-3.2,5.59-3.97
	c3.31-0.87,3.4,2.24,5.44,2.39c-2.75-6.28-9.18-10.83-14.88-10.62c-1.38,5.55-2.38,6.62-6.4,6.77c-5.12,0.19-8.17-1.02-8.69-4.62
	c-0.56-3.97-3.05-5.47-6.09-6.61c-4.08-1.52-8.21-3.04-12.44-4.01c-5.73-1.31-10.81,0.28-14.02,5.45
	C167.64,520.32,166.68,527.18,166.77,533.95z M394.32,431.16c0.08,0.41,0.17,0.8,0.25,1.21c-1.1,0.41-2.16,1.08-3.29,1.2
	c-7.05,0.75-14.11,1.37-21.18,2.06c-5.07,0.5-5.63,0-5.73-5.1c-0.23-12.23-0.47-24.45-0.74-36.68c-0.03-1.22-0.33-2.43-0.51-3.64
	c-0.41,0.03-0.8,0.06-1.21,0.09c-0.56,13.74-1.12,27.47-1.68,41.21c-0.53,0-1.05-0.01-1.58-0.01c0-7.2,0-14.41,0-21.61
	c-0.37,0.01-0.73,0.01-1.1,0.02c0,9.64-0.05,19.29,0.12,28.93c0.01,0.63,1.71,1.73,2.65,1.74c2.48,0.05,4.97-0.3,7.45-0.61
	c8.78-1.11,17.57-2.25,26.35-3.43c3-0.41,4.56-1.98,4.64-5.25c0.1-3.98,0.74-7.95,1.02-11.93c0.86-12.31,1.66-24.63,2.48-36.94
	c-1.41,3.92-2.47,7.92-2.62,11.96c-0.17,4.49-1.6,7.29-6.31,8c-1.01,0.15-1.91,1.12-2.86,1.72c-5.79,3.73-11.53,7.59-19.03,5.97
	c-2.38-0.51-3.04,0.88-3.04,3.01c0.02,5.37,0,10.75-0.11,16.13c-0.05,2.22,0.77,3.25,3.05,3.13c4.36-0.23,8.72-0.37,13.08-0.59
	C387.73,431.6,391.02,431.36,394.32,431.16z M300.55,522.78c-0.47,0.21-0.94,0.41-1.41,0.62c0.54,2.6,0.2,6.39,1.79,7.58
	c4.57,3.44,9.64,6.87,15.04,8.34c5.55,1.51,11.74,0.66,17.64,0.93c6.54,0.3,12.15-2.4,17.6-5.49c0.79-0.44,1.53-2.22,1.27-3.06
	c-1.58-5.06-2.91-10.32-5.37-14.94c-2.63-4.93-7.61-7.67-13.23-6.71c-6.2,1.06-12.23,3.15-18.24,5.1c-1.06,0.35-1.66,2.18-2.42,3.37
	c-0.83,1.29-1.3,3.01-2.43,3.86C307.61,524.74,304.08,524.75,300.55,522.78z M355.16,314.12c10.82-40.9,35.79-57.52,77.53-46.49
	c-1.19-1.09-2.35-1.92-3.65-2.4c-21.75-7.88-42.56-6.1-61.85,6.91c-12.04,8.12-18.51,20-20.25,34.4c-0.12,0.97,0.7,2.04,1.07,3.07
	c0.77-0.76,1.83-1.39,2.23-2.31c0.65-1.46,0.87-3.11,1.29-4.68c3.01-11.47,8.42-21.37,18.53-28.13c2.04-1.37,4.37-2.31,5.82-3.05
	c-4.88,5.96-10.62,11.9-15.07,18.69C356.25,297.07,353.92,305.08,355.16,314.12z M321.13,258.6c0-0.15,0-0.3-0.01-0.45
	c1.54-0.11,3.16,0.04,4.6-0.41c0.92-0.29,1.56-1.44,2.32-2.21c-0.86-0.48-1.72-1.4-2.56-1.38c-8.72,0.28-17.48,0.36-26.16,1.2
	c-8.54,0.83-13.97,6.69-14.68,15.32c-0.5,5.96-0.41,11.97-0.47,17.96c-0.01,1.18,0.54,2.37,0.83,3.55c0.5-0.02,1-0.04,1.5-0.05
	c0-4.16,0-8.32,0-13.35c1.94,1.82,2.96,2.77,4.49,4.22c4.91-6.12,9.45-12.04,14.35-17.65c1.24-1.42,3.6-2.47,5.52-2.59
	c4.58-0.27,9.19,0.17,13.79,0.2c0.86,0.01,1.74-0.47,2.61-0.72c-0.53-0.86-0.86-2.13-1.63-2.51
	C324.27,259.06,322.65,258.94,321.13,258.6z M308.02,367.62c0.01-0.34,0.02-0.68,0.02-1.01c3.43-0.2,6.86-0.31,10.27-0.67
	c0.76-0.08,1.42-1.05,2.13-1.62c-0.56-0.58-1.04-1.47-1.71-1.68c-4.83-1.47-9.69-1.71-14.01,1.35c-3.13,2.22-5.94,4.91-8.91,7.38
	c-3.14,2.62-3.72,5.92-2.04,9.44c3.67,7.65,9.79,12.47,17.98,14.61c0.77,0.2,1.74-0.37,2.61-0.58c-0.34-0.95-0.4-2.23-1.07-2.8
	c-2.84-2.43-5.88-4.61-8.81-6.95c-1.19-0.95-2.28-2.06-3.95-3.58c6.52-0.14,11.54,7.26,18.74,1.05c-5.43-2.8-10.13-5.22-14.84-7.66
	c0.11-0.35,0.22-0.71,0.32-1.07c1.25,0.14,2.54,0.17,3.77,0.44c3.17,0.67,6.3,1.75,9.5,2.02c1.31,0.11,2.76-1.42,4.15-2.2
	c-0.77-1.11-1.35-2.5-2.37-3.27c-1.04-0.77-2.52-1.01-3.84-1.35C313.32,368.81,310.67,368.24,308.02,367.62z M290.6,173.65
	c7.27,0.05,15.01-6.91,15.68-14.1c0.67-7.19-5.11-12.25-11.89-10.08c-6.34,2.03-10.72,6.36-12.47,12.89
	C280.17,168.84,283.95,173.6,290.6,173.65z M268.27,365.86c-0.74-0.84-0.86-1.12-1.06-1.19c-22.24-9.09-39.05-25.27-55.19-42.31
	c-2.22-2.34-4.19-4.93-6.34-7.33c-0.68-0.76-1.98-2-2.34-1.81c-1.07,0.59-2.66,1.89-2.56,2.71c0.32,2.34,0.72,5.23,2.24,6.78
	c8.45,8.63,17.07,17.11,26.01,25.24c2.72,2.47,6.65,3.58,9.93,5.48c3.3,1.9,6.28,4.5,9.76,5.9
	C254.84,361.77,261.22,363.55,268.27,365.86z M374.71,332.13c0.58,0.14,1.16,0.29,1.74,0.43c-5.1-33.52,6.65-55.91,40.87-63.67
	c-5.25-1.41-10.41-1.14-15.28,0.98c-18.69,8.14-29.12,22.51-31.59,42.69c-0.13,1.02,0.24,2.16,0.59,3.18c0.52,1.5,1.5,2.89,1.8,4.42
	C373.61,324.12,374.11,328.13,374.71,332.13z M289.8,406.04c-0.85,4.25-0.03,6.86,3.59,8.15c1.29,0.46,2.52,1.08,3.8,1.59
	c15.05,6,30.1,12.03,45.18,17.98c3.31,1.31,6.73,2.34,10.24,3.55c0-6.96,0-13.52,0-20.09c-0.41-0.17-0.81-0.32-1.21-0.49
	c-2.02,2.74-4.82,5.23-5.86,8.31c-1.07,3.15-2.61,3.19-4.97,2.68c-5.37-1.19-10.72-2.39-16.06-3.69c-1.32-0.32-2.8-0.74-3.75-1.61
	c-5.53-4.99-12.86-5.14-19.36-7.52C296.92,413.27,290.87,413.49,289.8,406.04z M171.09,172.78c0,2.13,0,4.25,0,6.37
	c0,0.25,0.01,0.5,0.05,0.74c0.45,2.87,3.66,5.31,6.82,5.2c4.81-0.17,5.82-1.23,6.4-5.28c0.41-2.89,0.65-7.12,2.47-8.21
	c3.35-2,1.68-4.31,1.64-6.39c-0.02-0.56-2.72-1.23-4.26-1.53c-1.32-0.26-2.74-0.05-4.11-0.05
	C171.04,163.64,171.04,163.64,171.09,172.78z M212.58,285.42c-0.78-0.57-1.53-1.2-2.34-1.71c-26.2-16.17-47.51-36.89-60.62-65.24
	c-0.51-1.1-1.71-1.89-3.24-3.51C147.8,234.96,189.57,279.21,212.58,285.42z M332.31,308.15c0.57,0.03,1.15,0.06,1.72,0.08
	c0.53-2.15,1.06-4.3,1.59-6.44c3.82-15.42,12.13-27.36,26.87-34.07c4.87-2.22,10.06-3.72,15.1-5.55c1.17-0.43,2.33-0.89,3.49-1.33
	c-7.48-0.16-14.56,0.76-21.16,4.22c-14.95,7.82-25.14,19.19-27.58,36.41C332.05,303.64,332.31,305.91,332.31,308.15z M185.24,151.51
	c-1.4-10.28-10.02-14.91-20.41-11.96c1.53,3.43,3.03,6.91,4.66,10.34c0.32,0.67,1.13,1.53,1.74,1.56
	C175.8,151.57,180.37,151.51,185.24,151.51z M392.23,247.37c-0.46,0.13-0.81,0.32-1.16,0.31c-4.37-0.11-3.95,3.43-4.28,6.03
	c-0.13,1.02,1.01,2.83,2.01,3.25c2.63,1.1,5.69,1.89,7.98-0.62c3.47-3.8,1-13.06-3.88-15.19
	C392.69,243.12,392.48,245.11,392.23,247.37z M377.77,251.47c-2.71,0.98-5.31,1.94-7.92,2.89c-0.19-0.39-0.38-0.78-0.56-1.18
	c1.56-1.14,3.16-2.22,4.64-3.44c1.8-1.47,1.73-3.67-0.36-3.94c-2.49-0.32-5.85,0.09-7.56,1.62c-1.5,1.34-1.84,4.73-1.58,7.08
	c0.35,3.01,3.34,2.8,5.7,2.83c1.23,0.02,2.47-0.2,3.71-0.29C377.36,256.79,378.59,254.93,377.77,251.47z M139.62,135.71
	c0.49,0.22,0.98,0.44,1.47,0.66c0.83-1.51,1.98-2.94,2.42-4.55c2.22-8.3,4.29-16.65,6.29-25.01c0.26-1.09-0.18-2.35-0.3-3.53
	c-0.95,0.92-2.43,1.7-2.74,2.8c-2,7.21-3.77,14.47-5.55,21.73C140.58,130.41,140.15,133.07,139.62,135.71z M360.72,239.24
	c-6.54-0.8-8.98,0.44-10.08,5.2c-0.56,2.41-0.75,4.91-1.04,7.38c-0.44,3.82,2.05,5,5.5,6.1C355.67,251.08,354.6,244.1,360.72,239.24
	z M348.65,240.15c-3.83-1.22-6.52,0.16-7.29,3.45c-0.94,4.05-1.15,8.31-1.19,12.49c-0.01,0.86,2.13,1.74,3.28,2.6
	c0.68-1.19,1.71-2.32,1.95-3.61c0.71-3.7,1.03-7.46,1.68-11.17C347.3,242.64,348.08,241.46,348.65,240.15z M338.71,277.6
	c-6.5,0.92-8.82,6.26-11.39,10.74c-3.13,5.48-5.34,11.48-3.87,18.78c2.21-5.73,3.7-10.87,6.13-15.55
	C332.07,286.79,335.47,282.47,338.71,277.6z M405.17,367.61c0.04-0.35,0.07-0.69,0.11-1.03c-8.24-2.89-16.47-5.78-24.71-8.67
	C387.36,365.46,395.5,368.91,405.17,367.61z M352.82,156.02c0.04-3.22-2.52-6.34-5.05-6.32c-3.04,0.03-4.44,1.89-4.61,4.73
	c-0.19,3.11,2.22,5.8,5.09,5.66C350.98,159.96,352.49,158.37,352.82,156.02z M293.47,455.6c6.84-9.35,9.33-19.91,8.78-31.28
	C299.33,434.74,296.4,445.17,293.47,455.6z M386.28,238.63c0.02,0.42,0.03,0.84,0.05,1.27c2.34,0,4.67,0.06,7.01-0.02
	c5.31-0.16,7.1,1.45,7.56,6.83c0.17,1.92,0.41,3.84,0.68,6.33c2.04-3.29,2.22-11.57,0.55-13.68c-0.5-0.63-1.34-1.19-2.12-1.36
	C395.35,236.98,390.76,237.27,386.28,238.63z M187.87,159c0.59-2.44-0.5-3.33-2.68-3.34c-4.1-0.02-8.21-0.14-12.32,0.02
	c-0.92,0.04-1.8,1.05-2.71,1.62c0.83,0.56,1.64,1.6,2.48,1.62C177.59,159.08,182.55,159,187.87,159z M315.21,266.25
	c-5.25-0.29-8.5,1.14-9.27,5.31c-1.19,6.52-1.19,13.25-1.66,19.89c-0.01,0.14,0.56,0.31,1.25,0.67c0.35-4.19,0.77-8.1,1-12.03
	C306.88,274.33,308.22,269.19,315.21,266.25z M331.74,257.22c2.13-5.22,4.54-11.14,6.98-17.15
	C332.96,240.21,329.5,249.95,331.74,257.22z M384.3,379.43c-0.58-0.06-1.15-0.13-1.73-0.19c-2.25,5.38-2.08,10.96-1.32,16.58
	c0.43,0.04,0.86,0.08,1.29,0.12C383.13,390.44,383.72,384.94,384.3,379.43z M327.9,275.79c-2.48-1.71-3.86-3.19-5.47-3.54
	c-0.76-0.17-2.65,1.72-2.86,2.89c-0.38,2.15,0.89,4.15,3.31,3.91C324.25,278.91,325.48,277.43,327.9,275.79z M187.26,440.12
	c1.05-6.64,2.11-13.29,3.16-19.93C187,426.46,184.52,432.9,187.26,440.12z M381.94,240.69c-3.49-0.34-6.73-0.86-9.97-0.91
	c-3.27-0.05-6.81-0.64-9.89,2.45c18.35-2.1,15.98-0.52,19.58,3.01C381.75,243.58,381.85,242.07,381.94,240.69z M310.53,297.89
	c0.31,0.39,0.62,0.77,0.93,1.16c2.29-1.69,4.58-3.39,7.38-5.45C310.69,291.09,310.48,291.22,310.53,297.89z M312.78,279.2
	c1.68-3.41,3.09-6.27,4.6-9.34C312,269.92,310.08,273.61,312.78,279.2z M188.99,449.01c0.64,0.21,1.28,0.43,1.92,0.64
	c1.6-5.55,3.2-11.09,4.8-16.63c-0.33-0.12-0.65-0.23-0.98-0.35C192.81,438.11,190.9,443.56,188.99,449.01z M286.76,531.11
	c4.4-4.79,8.21-8.97,12.04-13.13C292.72,520.2,289.13,524.64,286.76,531.11z M283.8,299.42c2.02,0.09,4.07,0.19,6.39,0.29
	c-1.74-2.51-3.95-3.8-6.33-2c-2.27,1.73-2.67,4.47-0.37,7.21C283.58,303.39,283.66,301.86,283.8,299.42z M237.81,486.24
	c0.35-0.17,0.7-0.34,1.04-0.5c-0.12-4.85-3.63-8.06-5.85-11.89c-0.32,0.15-0.64,0.31-0.95,0.46
	C233.97,478.28,235.89,482.25,237.81,486.24z M149.89,98.82c0.47,0.05,0.95,0.11,1.43,0.17c0.76-1.73,1.63-3.41,2.2-5.2
	c0.15-0.47-0.64-1.25-1-1.89c-1.2,1.56-2.52,3.07-3.52,4.75C148.76,97.05,149.57,98.08,149.89,98.82z M419.49,381.1
	c0.64-3.81-0.27-6.88-4.78-9.06C416.6,375.62,418.05,378.36,419.49,381.1z"/>
</svg>
