<?xml version="1.0" encoding="utf-8"?>
<!-- Generator: Adobe Illustrator 27.3.1, SVG Export Plug-In . SVG Version: 6.00 Build 0)  -->
<svg version="1.1" id="Calque_1" xmlns="http://www.w3.org/2000/svg" xmlns:xlink="http://www.w3.org/1999/xlink" x="0px" y="0px"
	 viewBox="0 0 389.7 563.1" style="enable-background:new 0 0 389.7 563.1;" xml:space="preserve">
<style type="text/css">
	.st0{fill:#020203;}
</style>
<path class="st0" d="M353.2,370.1c0.8-1,1.5-2.1,2-2.6c-7.2,0.7-14.7,1.4-22.3,2.1c1.1,0.8,2.7,1.6,3.6,2.8c2.6,3.5,3.2,7.4,2,11.7
	c-0.4,1.3-0.1,3,0.3,4.3c1.5,4.3,3.3,8.6,4.9,12.9c0.3,1,0,2.2-0.8,3.5c-3.2-7.1-6.4-14.2-9.7-21.3c-0.4,0.2-0.9,0.4-1.3,0.5
	c1.3,3.5,2.8,6.9,4,10.5c1.2,3.6,2.4,7.4,3.1,11.1c0.2,1.2-0.9,2.7-1.4,4.1c-1.1-1-2.6-1.9-3.1-3.1c-2-5-3.5-10.1-5.3-15.2
	c-0.2-0.6-0.7-1.2-1.9-1.6c0.3,1.3,0.8,2.6,0.8,3.9c0,2.8,0,5.7-0.4,8.5c-0.1,0.9-1.4,1.6-2.2,2.3c-0.3-1-0.9-2.1-0.8-3.1
	c0.7-4.9,0.6-9.6-2.9-14.8c-0.4,2-0.8,3-0.8,4c-0.8,13.5-1.6,26.9-2.4,40.4c-0.4,6.3-1.4,8.2-7.7,9c-11,1.5-22,2.8-33.1,3.5
	c-3.4,0.2-7.1-1.2-10.4-2.6c-13.8-5.6-27.4-11.4-41.1-17.1c-1.2-0.5-2.5-1-3.6-1.4c-1.3,8.4-2.6,16.4-3.7,24.5c-0.1,0.9,0.8,2,1.2,3
	c1.4,3.1,2.8,6.2,4.2,9.4c-0.4,0.2-0.8,0.5-1.1,0.7c-1.2-1.4-2.3-2.8-3.8-4.5c2.9,9.6,6.3,18.5,8.1,27.8c1.9,9.3,2.2,19,3.2,28.3
	c4.5-1.3,9.7-2.9,15-4.1c9.5-2.1,16.3,0.8,21.3,9.1c3.9,6.5,6.1,13.4,5.7,21c-0.2,4.1,1.6,6,5.5,6.3c8.6,0.7,17.2,1.3,25.8,1.8
	c19.8,1.1,39.7,2,59.5,3.2c5,0.3,10,1.5,15,2.3c0.1,0.5,0.1,1,0.2,1.6c-1.6,0.6-3.1,1.4-4.7,1.6c-11.7,1.3-23.3,2.9-35,3.7
	c-22.1,1.4-44.2,2.7-66.3,3.2c-33.6,0.9-67.3,1.4-100.9,1.4c-27,0-54-0.6-81-1.7c-23.8-1-47.7-2.8-71.5-4.5
	c-5.2-0.4-10.4-1.4-15.6-2.2c-1.4-0.2-2.7-0.8-4-1.3c0-0.4,0-0.7,0-1.1c1.7-0.5,3.4-1.3,5.1-1.5c13.4-1.4,26.8-2.7,40.2-3.9
	c9.4-0.8,18.9-1.4,28.4-2.3c5.8-0.5,6.1-1.8,6.5-7.4c0.4-6.5,1.1-13.3,3.1-19.5c3.4-10.7,10.1-13.8,21.4-11.1
	c3.9,0.9,7.5,2.6,11.3,4c1.5,0.5,2.9,1.1,4.6,1.8c1-17.3,1.9-34.2,2.9-51c-0.3-0.2-0.6-0.5-0.9-0.7c-2.6,2.3-5.6,4.4-7.9,7
	c-2.4,2.6-4.1,5.7-6.2,8.6c-0.5-0.2-1-0.4-1.5-0.6c1.9-7.7,3.8-15.4,5.9-23.8c-2.1,0.3-3.9,0.8-5.6,0.8c-1.2,0-3.3-0.6-3.5-1.4
	c-2.6-7.9-5.3-15.8-7.4-23.9c-4.7-18.1-5-36.6-4.3-55.1c0.6-14.5,0.9-29,3.1-43.3c2.4-15.8,6.4-31.5,10.4-47c1.1-4.2,0.1-6.2-3-8.5
	c-16.2-12-29.4-26.6-38.7-44.6c-1.1-2.1-2.1-4.3-3-6.4c-2-4.4-3.3-8.9-7.6-12c-4-2.9-4.9-7.9-4.8-12.6c0.3-16.6-0.3-33.4,1.7-49.8
	c1.7-14.2,6.4-28.1,9.9-42.2c0.3-1.3,0.7-2.6,1.1-4.3c-3.4,0-6.4,0-9.4,0c-0.1-0.4-0.1-0.8-0.2-1.1c1.5-0.7,3-1.5,4.5-2.1
	c1.8-0.8,4.1-1.1,5.5-2.3c1.5-1.3,2.6-3.3,3-5.2c0.1-0.6-2.5-2-4.1-2.6c-1.7-0.7-3.5-0.8-5.3-1.2c-0.1-0.4-0.2-0.8-0.3-1.2
	c6.9-2.7,13.8-5.4,20.8-8.2c-0.1-0.5-0.2-1.1-0.3-1.6c-5.7-0.8-11.3-1.6-17.7-2.4c0.9-0.9,1.3-1.5,1.8-1.6c8.9-1.8,17.8-3.8,26.8-5
	c2.9-0.4,6.1,1.3,9.2,2c1.3,0.3,2.8,0.2,3.9,0.8c1.6,0.9,3.8,2.1,4.1,3.6c0.3,1.5-1.3,3.4-2.1,5.1c-0.1,0.2-0.4,0.3-0.6,0.5
	c-1.7,1.5-3.4,3-5.1,4.6c1.6,1.3,3.3,2.7,4.9,4.1c0.5,0.4,1.1,0.8,1.2,1.4c1.3,4.7,5.3,5.9,9.2,7.3c2,0.7,3.9,1.7,5.6,2.9
	c5.3,3.8,11.4,5.1,17.5,4.1c6.6-1.1,13.4-2.7,19.4-5.5c13.6-6.3,27.8-9.4,42.7-10.1c4.7-0.2,9.5-0.8,14.1-0.2
	c30.9,4.3,59.3,13.5,78.5,40.5c0.6,0.8,1.2,1.5,2.6,1.9c-0.9-2.9-1.8-5.9-2.8-8.8c-5.3-15-11.3-29.6-20.3-42.8
	c-2.2-3.3-5.4-4.2-8.7-5.3c-1.4-0.4-2.8-0.7-5-1.3c3.3-2.2,5.8-3.8,8.5-5.5c-14.7-18.4-32.2-32.8-52.6-43.8
	c-6.1-3.3-12.7-5.8-18.9-8.8c-2.3-1.1-4.3-2.8-6.9-3.9c1.9,3.2,3.7,6.4,6.1,10.5c-10.4-3.5-19.6-6.6-28.9-9.8
	c-0.1,0.3-0.3,0.5-0.4,0.8c2.6,2.2,5.1,4.5,7.7,6.7c-0.1,0.4-0.3,0.8-0.4,1.2c-16.2-4.5-32.4-3.7-49.7-0.9
	c7.9,4.6,15.8,7.3,22.1,14.7c-15.8,0.7-29.7,4.8-43.8,9.4c9.5,3,18.6,6.4,26,13.8c-14.1,2.2-27.5,4.3-41,6.5
	c0.1-0.4,0.4-1.2,0.6-2.3c-5.7,0.9-11.1,1.7-16.6,2.5c-0.1-0.4-0.2-0.8-0.3-1.3c10.1-5.3,20.7-9.5,32-12.7c-6.9-1.3-13.8-2.5-21.4-4
	c1.7-0.9,2.9-2,4.2-2.3c13.8-3.4,27.6-6.7,41.4-9.9c1.9-0.5,3.9-0.7,5.9-1.5c-8.6-1.6-17.2-3.1-26.9-4.9c5.2-4.6,10.6-2.7,16.1-4
	c-2.9-1.4-5.2-2.5-7.6-3.6c0.1-0.5,0.1-1,0.2-1.6c15-2.8,30.1-4.2,46.6-3.6c-6.2-4.4-11.6-8.3-17.1-12.1c0.2-0.5,0.4-1,0.6-1.4
	c2.6,0.6,5.4,0.8,7.9,1.7c11.8,4.5,23.4,9.2,35.1,13.8c0.6,0.3,1.3,0.5,2,0.7c0.3-0.3,0.6-0.6,0.9-0.9c-4.3-4.4-8.6-8.9-13.4-13.9
	c1.3,0.2,2.4,0.1,3.1,0.5c14.9,7.8,30.1,15.2,44.6,23.7c15.3,8.9,28.4,20.8,39.9,34.3c1.3,1.5,2.6,3.2,4.2,4.3
	c1.3,0.9,3.2,1,5.6,1.7c-2.7,1.7-5.2,3.2-8.2,5.2c6,1.4,11.5,2.8,17.6,4.2c-2.1,3.8-4.9,1.9-8,1.5c1.1,2.1,1.9,3.8,2.9,5.4
	c14.2,24.3,23.3,50.6,27,78.4c3.4,25.5-4.4,48.4-18.3,69.5c-1,1.6-2,3.2-3,4.7c0.3,0.3,0.5,0.6,0.8,0.9c1.5-1.4,3-2.8,5-4.7
	c-0.2,2.1-0.4,3.7-0.6,5.5c5.3,0,10.4,0.1,15.6,0c4.7-0.2,9.4-1,14.1-0.9c5.1,0.1,6.8,2.1,6.8,7.3c0,4.4,0,8.7,0,12.9
	c8.2,2.1,16,3.7,23.5,6.1c3,1,5.5,3.5,8.2,5.3c1.7,1.2,3.2,3,5.1,3.6c26.4,8.5,40.6,44.3,24,73.3c-4.4,7.8-10.1,14.2-17.8,18.9
	c-2.8,1.7-5.3,3.7-8,5.5c-1.1,0.7-2.2,1.3-3.4,1.9C353.4,370.4,353.3,370.2,353.2,370.1z M183.2,223.8c3.1-2.2,2.4-4,1.3-6.5
	c-3-7-6.5-14-7.8-21.3c-3.7-21.4,2.5-41,13.9-58.8c7.6-11.9,18.7-20.1,32.7-23.5c19.5-4.8,50.4,9.1,59.6,30.4
	c8.3,19.2,8.8,38.2,2.3,57.7c-0.5,1.4-0.9,2.7-1.7,5.1c2.8-1.7,4.6-2.8,6.8-4.2c-0.6,2.3-1,4.2-1.5,6.1c0.3,0.1,0.6,0.2,0.9,0.3
	c0.6-1.2,1.3-2.3,1.8-3.5c3.6-7.8,5.9-15.8,6.8-24.4c2.1-19.8-2.1-37.8-14.4-53.6c-24.1-31.2-77.9-45.9-114.9-26.4
	c-11.1,5.9-20.9,13.2-27.8,23.9c-1.6,2.6-2.8,5.5-4.1,8.3c0.3,0.2,0.6,0.3,0.9,0.5c2.6-3.6,5.1-7.4,7.9-10.8c2.5-3.1,5.2-6,8.2-8.7
	c0.9-0.8,2.7-0.5,4.1-0.7c-0.4,1.2-0.6,2.4-1.2,3.5c-3,4.9-6.5,9.5-9,14.6c-6,12.2-7.5,25.3-7.3,38.7c0.1,6-0.1,6,5.7,6.9
	c0.7,0.1,1.5,0.1,2.2,0.2c1.6,0.4,3.2,0.9,4.8,1.4c-0.1,0.4-0.2,0.9-0.2,1.4c-4.1,0-8.3,0-12.4,0c0,0.5,0,0.9-0.1,1.4
	c4.5,0.5,9,1,13.5,1.5c-1.2,1.1-2.4,1.6-3.7,1.6c-2.5,0.2-5,0.3-7.5,0.2c-2.5-0.1-3.4,1.1-3.1,3.4c0.5,4.3,1.1,8.7,1.5,13
	c1,10.4,6.2,18.2,14.6,24c1.6,1.1,3.5,1.9,5.4,2.5c6.9,2,11.3-1.4,10.5-8.5c-0.5-4-2.1-7.9-3.2-11.9c-1.3-4.8-2.7-9.6-4-14.5
	c0.4-0.1,0.8-0.3,1.2-0.4C170.2,203.9,174.5,215,183.2,223.8z M341.4,271.2c-13.7-0.2-27.9,6.9-35.7,18.1c-12.7,18.3-12.8,42,4.5,63
	c12.4,15.1,40.2,18.6,56.4,5.5c12.9-10.5,19.1-24.5,19.4-40.6C386.5,290.6,369.4,272.1,341.4,271.2z M157.4,493.5
	c-6.9-7.5-13.3-14.5-20.3-22.1c-0.6,1.9-0.9,2.4-0.9,3c-0.5,12.1-0.9,24.2-1.2,36.3c0,0.8,1.2,2.1,2.1,2.4
	c11,3.5,16.9,11.5,19.6,22.2c0.5,2.2,1.5,3.2,3.8,3.2c11.2-0.1,22.4-0.1,33.7,0c2.9,0,4.1-1.2,4.8-4c2.2-9,6.9-16.3,15.5-20.5
	c2.9-1.4,3.9-3.4,3.7-6.5c-0.5-11.9-2.4-23.6-6-35c-0.5-1.4-1.3-2.7-2.3-4.5c-1,1.9-1.6,3-2.4,4.5c-5.8-2.4-11.4-4.6-17.7-7.2
	c-0.3,2.7-0.5,4.8-0.7,6.8c-0.5,4.3-0.8,8.7-1.5,13c-0.2,1.3-1.2,2.5-1.9,3.8c-1-0.8-2.2-1.4-3.1-2.4c-2.2-2.4-4.1-5-6.5-7.2
	c-4.8-4.5-10-8.5-16.6-11C158.1,476.7,160.4,485,157.4,493.5z M110.2,282.5c-0.4,0-0.7-0.1-1.1-0.1c-0.6,1.5-1.4,2.9-1.8,4.5
	c-2.3,9.2-5.1,18.3-6.8,27.6c-5.1,28.1-6,56.6-5.1,85.1c0.3,8.2,1.8,16.4,2.8,24.5c0.2,1.5,0.9,3,1.4,4.5c0.7-3.1,0.8-5.9,0.7-8.8
	c-0.3-8.3-1-16.5-0.9-24.8c0.1-4.1,1.4-8.2,2.3-12.2c0.5-2.4,1.8-2.2,3.4-0.8c1.7,1.5,3.6,2.8,5.6,3.9c1.6,1,3.6,1.5,5,2.7
	c3.1,2.6,6.1,4.7,10.4,5.3c3.2,0.4,7.8-1.6,8.7,2.9c1.1-1.2,2.1-2.6,3.3-3.4c1.1-0.7,2.6-0.8,3.9-1.2c3.1-0.9,5-7.1,3-9.3
	c-1.2-1.3-2.2-2.9-3.1-4.4c-2.1-3.6-4-7.3-6.2-10.9c-0.6-0.9-2.1-1.2-3.1-1.9c-0.7-0.5-2-1.4-1.9-1.8c0.8-2.9-1.6-3.7-3.1-5
	c-3.4-2.8-7.5-5-7.6-10.4c0-1-0.9-2.1-1.6-2.8c-5.8-5.2-5.8-12.8-7.4-19.5c-0.8-3.2-0.6-7.1,0.6-10.1c1.2-3.4,1.4-6.1-0.1-9.2
	c-3.3-6.9-5.3-13.8-1.9-21.3C110.4,284.8,110.2,283.6,110.2,282.5z M83,178c-0.1,0-0.3,0-0.4,0c0-7.6,0.4-15.3-0.1-22.8
	c-0.4-6.1-1.8-12.4-7.8-15.8c-10.1-5.7-21.6,0.3-22.2,11.8c-0.8,14.8-1.4,29.7-1.4,44.6c-0.1,12.9,12.8,20.8,24.7,15.4
	c1.5-0.7,2.9-2.1,3.6-3.6c1.2-2.4,2.2-5.1,2.4-7.8C82.4,192.4,82.7,185.2,83,178z M183.5,178c0.4,0.1,0.8,0.1,1.2,0.1
	c0.3-1.4,0.7-2.8,0.9-4.2c1.9-12.5,5.3-24.3,13-34.7c6.5-8.9,15.9-13.1,25.9-16.2c11.8-3.7,22.7-1.9,32.4,5.8
	c3.2,2.5,5.6,6.1,8.8,8.6c6.5,5.1,10.2,11.9,12.7,19.5c3.1,9.3,3.6,18.8,2.3,28.5c-2.9,20.4-17.7,37.9-37.1,42.2
	c-7.3,1.6-15.1,1.2-22.7,1.7c-1.5,0.1-3,0-4.5,0c-0.1,0.4-0.1,0.9-0.2,1.3c2.4,0.8,4.7,2,7.1,2.5c17.3,3.4,32.2-2.1,44.8-13.6
	c13.7-12.5,19.2-28.5,18.6-46.8c-0.5-18.2-7.2-33.5-21.3-45.3c-15.5-13.1-37.6-15.3-54.2-5.2c-19.3,11.8-27.1,30.2-28.2,52.1
	C183,175.4,183.3,176.7,183.5,178z M83.3,534c1.6,0.5,3,0.5,4,1.2c7.1,4.5,14.8,6.1,22.9,4.7c6.6-1.1,13.1-2.7,19.5-4.7
	c3.5-1.1,7-3.2,9.8-5.7c1.8-1.7,2.7-3.2,5.6-4c3.3-0.9,3.4,2.2,5.4,2.4c-2.8-6.3-9.2-10.8-14.9-10.6c-1.4,5.5-2.4,6.6-6.4,6.8
	c-5.1,0.2-8.2-1-8.7-4.6c-0.6-4-3.1-5.5-6.1-6.6c-4.1-1.5-8.2-3-12.4-4c-5.7-1.3-10.8,0.3-14,5.5C84.2,520.3,83.2,527.2,83.3,534z
	 M310.9,431.2c0.1,0.4,0.2,0.8,0.2,1.2c-1.1,0.4-2.2,1.1-3.3,1.2c-7,0.8-14.1,1.4-21.2,2.1c-5.1,0.5-5.6,0-5.7-5.1
	c-0.2-12.2-0.5-24.5-0.7-36.7c0-1.2-0.3-2.4-0.5-3.6c-0.4,0-0.8,0.1-1.2,0.1c-0.6,13.7-1.1,27.5-1.7,41.2c-0.5,0-1,0-1.6,0
	c0-7.2,0-14.4,0-21.6c-0.4,0-0.7,0-1.1,0c0,9.6,0,19.3,0.1,28.9c0,0.6,1.7,1.7,2.7,1.7c2.5,0,5-0.3,7.5-0.6
	c8.8-1.1,17.6-2.2,26.3-3.4c3-0.4,4.6-2,4.6-5.2c0.1-4,0.7-8,1-11.9c0.9-12.3,1.7-24.6,2.5-36.9c-1.4,3.9-2.5,7.9-2.6,12
	c-0.2,4.5-1.6,7.3-6.3,8c-1,0.1-1.9,1.1-2.9,1.7c-5.8,3.7-11.5,7.6-19,6c-2.4-0.5-3,0.9-3,3c0,5.4,0,10.8-0.1,16.1
	c0,2.2,0.8,3.2,3,3.1c4.4-0.2,8.7-0.4,13.1-0.6C304.3,431.6,307.6,431.4,310.9,431.2z M217.1,522.8c-0.5,0.2-0.9,0.4-1.4,0.6
	c0.5,2.6,0.2,6.4,1.8,7.6c4.6,3.4,9.6,6.9,15,8.3c5.5,1.5,11.7,0.7,17.6,0.9c6.5,0.3,12.1-2.4,17.6-5.5c0.8-0.4,1.5-2.2,1.3-3.1
	c-1.6-5.1-2.9-10.3-5.4-14.9c-2.6-4.9-7.6-7.7-13.2-6.7c-6.2,1.1-12.2,3.1-18.2,5.1c-1.1,0.3-1.7,2.2-2.4,3.4
	c-0.8,1.3-1.3,3-2.4,3.9C224.1,524.8,220.6,524.8,217.1,522.8z M271.7,314.1c10.8-40.9,35.8-57.5,77.5-46.5
	c-1.2-1.1-2.4-1.9-3.7-2.4c-21.8-7.9-42.6-6.1-61.8,6.9c-12,8.1-18.5,20-20.2,34.4c-0.1,1,0.7,2,1.1,3.1c0.8-0.8,1.8-1.4,2.2-2.3
	c0.7-1.5,0.9-3.1,1.3-4.7c3-11.5,8.4-21.4,18.5-28.1c2-1.4,4.4-2.3,5.8-3c-4.9,6-10.6,11.9-15.1,18.7
	C272.8,297.1,270.5,305.1,271.7,314.1z M237.7,258.6c0-0.1,0-0.3,0-0.5c1.5-0.1,3.2,0,4.6-0.4c0.9-0.3,1.6-1.4,2.3-2.2
	c-0.9-0.5-1.7-1.4-2.6-1.4c-8.7,0.3-17.5,0.4-26.2,1.2c-8.5,0.8-14,6.7-14.7,15.3c-0.5,6-0.4,12-0.5,18c0,1.2,0.5,2.4,0.8,3.5
	c0.5,0,1,0,1.5,0c0-4.2,0-8.3,0-13.4c1.9,1.8,3,2.8,4.5,4.2c4.9-6.1,9.5-12,14.4-17.6c1.2-1.4,3.6-2.5,5.5-2.6
	c4.6-0.3,9.2,0.2,13.8,0.2c0.9,0,1.7-0.5,2.6-0.7c-0.5-0.9-0.9-2.1-1.6-2.5C240.8,259.1,239.2,259,237.7,258.6z M224.6,367.6
	c0-0.3,0-0.7,0-1c3.4-0.2,6.9-0.3,10.3-0.7c0.8-0.1,1.4-1,2.1-1.6c-0.6-0.6-1-1.5-1.7-1.7c-4.8-1.5-9.7-1.7-14,1.4
	c-3.1,2.2-5.9,4.9-8.9,7.4c-3.1,2.6-3.7,5.9-2,9.4c3.7,7.6,9.8,12.5,18,14.6c0.8,0.2,1.7-0.4,2.6-0.6c-0.3-1-0.4-2.2-1.1-2.8
	c-2.8-2.4-5.9-4.6-8.8-7c-1.2-1-2.3-2.1-4-3.6c6.5-0.1,11.5,7.3,18.7,1c-5.4-2.8-10.1-5.2-14.8-7.7c0.1-0.4,0.2-0.7,0.3-1.1
	c1.2,0.1,2.5,0.2,3.8,0.4c3.2,0.7,6.3,1.8,9.5,2c1.3,0.1,2.8-1.4,4.1-2.2c-0.8-1.1-1.4-2.5-2.4-3.3c-1-0.8-2.5-1-3.8-1.4
	C229.9,368.8,227.2,368.3,224.6,367.6z M207.1,173.7c7.3,0.1,15-6.9,15.7-14.1c0.7-7.2-5.1-12.2-11.9-10.1
	c-6.3,2-10.7,6.4-12.5,12.9C196.7,168.9,200.5,173.6,207.1,173.7z M184.8,365.9c-0.7-0.8-0.9-1.1-1.1-1.2
	c-22.2-9.1-39.1-25.3-55.2-42.3c-2.2-2.3-4.2-4.9-6.3-7.3c-0.7-0.8-2-2-2.3-1.8c-1.1,0.6-2.7,1.9-2.6,2.7c0.3,2.3,0.7,5.2,2.2,6.8
	c8.4,8.6,17.1,17.1,26,25.2c2.7,2.5,6.6,3.6,9.9,5.5c3.3,1.9,6.3,4.5,9.8,5.9C171.4,361.8,177.8,363.6,184.8,365.9z M291.2,332.1
	c0.6,0.1,1.2,0.3,1.7,0.4c-5.1-33.5,6.7-55.9,40.9-63.7c-5.2-1.4-10.4-1.1-15.3,1c-18.7,8.1-29.1,22.5-31.6,42.7
	c-0.1,1,0.2,2.2,0.6,3.2c0.5,1.5,1.5,2.9,1.8,4.4C290.1,324.1,290.6,328.1,291.2,332.1z M206.3,406.1c-0.9,4.2,0,6.9,3.6,8.1
	c1.3,0.5,2.5,1.1,3.8,1.6c15,6,30.1,12,45.2,18c3.3,1.3,6.7,2.3,10.2,3.5c0-7,0-13.5,0-20.1c-0.4-0.2-0.8-0.3-1.2-0.5
	c-2,2.7-4.8,5.2-5.9,8.3c-1.1,3.1-2.6,3.2-5,2.7c-5.4-1.2-10.7-2.4-16.1-3.7c-1.3-0.3-2.8-0.7-3.8-1.6c-5.5-5-12.9-5.1-19.4-7.5
	C213.5,413.3,207.4,413.5,206.3,406.1z M87.6,172.8c0,2.1,0,4.2,0,6.4c0,0.2,0,0.5,0.1,0.7c0.4,2.9,3.7,5.3,6.8,5.2
	c4.8-0.2,5.8-1.2,6.4-5.3c0.4-2.9,0.6-7.1,2.5-8.2c3.4-2,1.7-4.3,1.6-6.4c0-0.6-2.7-1.2-4.3-1.5c-1.3-0.3-2.7-0.1-4.1-0.1
	C87.6,163.7,87.6,163.7,87.6,172.8z M129.1,285.4c-0.8-0.6-1.5-1.2-2.3-1.7c-26.2-16.2-47.5-36.9-60.6-65.2
	c-0.5-1.1-1.7-1.9-3.2-3.5C64.3,235,106.1,279.2,129.1,285.4z M248.8,308.2c0.6,0,1.1,0.1,1.7,0.1c0.5-2.1,1.1-4.3,1.6-6.4
	c3.8-15.4,12.1-27.4,26.9-34.1c4.9-2.2,10.1-3.7,15.1-5.5c1.2-0.4,2.3-0.9,3.5-1.3c-7.5-0.2-14.6,0.8-21.2,4.2
	c-15,7.8-25.1,19.2-27.6,36.4C248.6,303.7,248.8,305.9,248.8,308.2z M101.8,151.5c-1.4-10.3-10-14.9-20.4-12c1.5,3.4,3,6.9,4.7,10.3
	c0.3,0.7,1.1,1.5,1.7,1.6C92.3,151.6,96.9,151.5,101.8,151.5z M308.8,247.4c-0.5,0.1-0.8,0.3-1.2,0.3c-4.4-0.1-4,3.4-4.3,6
	c-0.1,1,1,2.8,2,3.2c2.6,1.1,5.7,1.9,8-0.6c3.5-3.8,1-13.1-3.9-15.2C309.2,243.1,309,245.1,308.8,247.4z M294.3,251.5
	c-2.7,1-5.3,1.9-7.9,2.9c-0.2-0.4-0.4-0.8-0.6-1.2c1.6-1.1,3.2-2.2,4.6-3.4c1.8-1.5,1.7-3.7-0.4-3.9c-2.5-0.3-5.9,0.1-7.6,1.6
	c-1.5,1.3-1.8,4.7-1.6,7.1c0.4,3,3.3,2.8,5.7,2.8c1.2,0,2.5-0.2,3.7-0.3C293.9,256.8,295.1,254.9,294.3,251.5z M56.2,135.7
	c0.5,0.2,1,0.4,1.5,0.7c0.8-1.5,2-2.9,2.4-4.6c2.2-8.3,4.3-16.7,6.3-25c0.3-1.1-0.2-2.3-0.3-3.5c-0.9,0.9-2.4,1.7-2.7,2.8
	c-2,7.2-3.8,14.5-5.6,21.7C57.1,130.4,56.7,133.1,56.2,135.7z M277.3,239.3c-6.5-0.8-9,0.4-10.1,5.2c-0.6,2.4-0.8,4.9-1,7.4
	c-0.4,3.8,2,5,5.5,6.1C272.2,251.1,271.1,244.1,277.3,239.3z M265.2,240.2c-3.8-1.2-6.5,0.2-7.3,3.4c-0.9,4.1-1.2,8.3-1.2,12.5
	c0,0.9,2.1,1.7,3.3,2.6c0.7-1.2,1.7-2.3,2-3.6c0.7-3.7,1-7.5,1.7-11.2C263.8,242.7,264.6,241.5,265.2,240.2z M255.2,277.6
	c-6.5,0.9-8.8,6.3-11.4,10.7c-3.1,5.5-5.3,11.5-3.9,18.8c2.2-5.7,3.7-10.9,6.1-15.5C248.6,286.8,252,282.5,255.2,277.6z
	 M321.7,367.6c0-0.4,0.1-0.7,0.1-1c-8.2-2.9-16.5-5.8-24.7-8.7C303.9,365.5,312,368.9,321.7,367.6z M269.4,156c0-3.2-2.5-6.3-5-6.3
	c-3,0-4.4,1.9-4.6,4.7c-0.2,3.1,2.2,5.8,5.1,5.7C267.5,160,269,158.4,269.4,156z M210,455.6c6.8-9.4,9.3-19.9,8.8-31.3
	C215.9,434.8,212.9,445.2,210,455.6z M302.8,238.6c0,0.4,0,0.8,0,1.3c2.3,0,4.7,0.1,7,0c5.3-0.2,7.1,1.4,7.6,6.8
	c0.2,1.9,0.4,3.8,0.7,6.3c2-3.3,2.2-11.6,0.5-13.7c-0.5-0.6-1.3-1.2-2.1-1.4C311.9,237,307.3,237.3,302.8,238.6z M104.4,159
	c0.6-2.4-0.5-3.3-2.7-3.3c-4.1,0-8.2-0.1-12.3,0c-0.9,0-1.8,1.1-2.7,1.6c0.8,0.6,1.6,1.6,2.5,1.6C94.1,159.1,99.1,159,104.4,159z
	 M231.7,266.3c-5.2-0.3-8.5,1.1-9.3,5.3c-1.2,6.5-1.2,13.2-1.7,19.9c0,0.1,0.6,0.3,1.2,0.7c0.4-4.2,0.8-8.1,1-12
	C223.4,274.3,224.8,269.2,231.7,266.3z M248.3,257.2c2.1-5.2,4.5-11.1,7-17.1C249.5,240.2,246,250,248.3,257.2z M300.8,379.4
	c-0.6-0.1-1.2-0.1-1.7-0.2c-2.2,5.4-2.1,11-1.3,16.6c0.4,0,0.9,0.1,1.3,0.1C299.7,390.5,300.3,385,300.8,379.4z M244.4,275.8
	c-2.5-1.7-3.9-3.2-5.5-3.5c-0.8-0.2-2.6,1.7-2.9,2.9c-0.4,2.1,0.9,4.1,3.3,3.9C240.8,278.9,242,277.4,244.4,275.8z M103.8,440.1
	c1.1-6.6,2.1-13.3,3.2-19.9C103.5,426.5,101.1,432.9,103.8,440.1z M298.5,240.7c-3.5-0.3-6.7-0.9-10-0.9c-3.3-0.1-6.8-0.6-9.9,2.4
	c18.4-2.1,16-0.5,19.6,3C298.3,243.6,298.4,242.1,298.5,240.7z M227.1,297.9c0.3,0.4,0.6,0.8,0.9,1.2c2.3-1.7,4.6-3.4,7.4-5.5
	C227.2,291.1,227,291.2,227.1,297.9z M229.3,279.2c1.7-3.4,3.1-6.3,4.6-9.3C228.5,269.9,226.6,273.6,229.3,279.2z M105.5,449
	c0.6,0.2,1.3,0.4,1.9,0.6c1.6-5.5,3.2-11.1,4.8-16.6c-0.3-0.1-0.6-0.2-1-0.4C109.3,438.1,107.4,443.6,105.5,449z M203.3,531.1
	c4.4-4.8,8.2-9,12-13.1C209.3,520.2,205.7,524.7,203.3,531.1z M200.3,299.4c2,0.1,4.1,0.2,6.4,0.3c-1.7-2.5-4-3.8-6.3-2
	c-2.3,1.7-2.7,4.5-0.4,7.2C200.1,303.4,200.2,301.9,200.3,299.4z M154.3,486.3c0.4-0.2,0.7-0.3,1-0.5c-0.1-4.9-3.6-8.1-5.9-11.9
	c-0.3,0.1-0.6,0.3-0.9,0.5C150.5,478.3,152.4,482.3,154.3,486.3z M66.4,98.8c0.5,0.1,0.9,0.1,1.4,0.2c0.8-1.7,1.6-3.4,2.2-5.2
	c0.1-0.5-0.6-1.2-1-1.9c-1.2,1.6-2.5,3.1-3.5,4.8C65.3,97.1,66.1,98.1,66.4,98.8z M336,381.1c0.6-3.8-0.3-6.9-4.8-9.1
	C333.1,375.6,334.6,378.4,336,381.1z"/>
</svg>
